<mxfile host="app.diagrams.net" agent="Mozilla/5.0 (X11; Ubuntu; Linux x86_64; rv:136.0) Gecko/20100101 Firefox/136.0" version="26.1.1">
  <diagram name="Page-1" id="C1oW-nlEF33VLxq1Fjtr">
    <mxGraphModel dx="3243" dy="1181" grid="1" gridSize="10" guides="1" tooltips="1" connect="1" arrows="1" fold="1" page="1" pageScale="1" pageWidth="1169" pageHeight="827" math="0" shadow="0">
      <root>
        <mxCell id="0" />
        <mxCell id="1" parent="0" />
        <mxCell id="bZ2qh_dztLTytBPS-_CS-1" value="" style="line;strokeWidth=2;html=1;" vertex="1" parent="1">
          <mxGeometry x="90" y="50" width="80" height="10" as="geometry" />
        </mxCell>
        <mxCell id="bZ2qh_dztLTytBPS-_CS-2" value="" style="line;strokeWidth=2;html=1;" vertex="1" parent="1">
          <mxGeometry x="100" y="60" width="80" height="10" as="geometry" />
        </mxCell>
        <mxCell id="bZ2qh_dztLTytBPS-_CS-3" value="" style="line;strokeWidth=2;html=1;" vertex="1" parent="1">
          <mxGeometry x="110" y="70" width="80" height="10" as="geometry" />
        </mxCell>
        <mxCell id="bZ2qh_dztLTytBPS-_CS-6" style="edgeStyle=orthogonalEdgeStyle;rounded=0;orthogonalLoop=1;jettySize=auto;html=1;" edge="1" parent="1" source="bZ2qh_dztLTytBPS-_CS-4">
          <mxGeometry relative="1" as="geometry">
            <mxPoint x="160" y="170" as="targetPoint" />
          </mxGeometry>
        </mxCell>
        <mxCell id="bZ2qh_dztLTytBPS-_CS-7" value="ASSEMBLY" style="edgeLabel;html=1;align=center;verticalAlign=middle;resizable=0;points=[];" vertex="1" connectable="0" parent="bZ2qh_dztLTytBPS-_CS-6">
          <mxGeometry x="0.0563" y="-1" relative="1" as="geometry">
            <mxPoint as="offset" />
          </mxGeometry>
        </mxCell>
        <mxCell id="bZ2qh_dztLTytBPS-_CS-4" value="" style="line;strokeWidth=2;html=1;" vertex="1" parent="1">
          <mxGeometry x="120" y="80" width="80" height="10" as="geometry" />
        </mxCell>
        <mxCell id="bZ2qh_dztLTytBPS-_CS-5" value="&lt;div&gt;raw reads / fragments&lt;/div&gt;" style="text;strokeColor=none;align=center;fillColor=none;html=1;verticalAlign=middle;whiteSpace=wrap;rounded=0;" vertex="1" parent="1">
          <mxGeometry x="-20" y="40" width="60" height="30" as="geometry" />
        </mxCell>
        <mxCell id="bZ2qh_dztLTytBPS-_CS-13" value="&lt;div&gt;contigs&lt;/div&gt;" style="text;strokeColor=none;align=center;fillColor=none;html=1;verticalAlign=middle;whiteSpace=wrap;rounded=0;" vertex="1" parent="1">
          <mxGeometry x="-30" y="180" width="60" height="30" as="geometry" />
        </mxCell>
        <mxCell id="bZ2qh_dztLTytBPS-_CS-8" value="" style="line;strokeWidth=4;html=1;perimeter=backbonePerimeter;points=[];outlineConnect=0;fillColor=#ffe6cc;strokeColor=#d79b00;" vertex="1" parent="1">
          <mxGeometry x="80" y="180" width="170" height="10" as="geometry" />
        </mxCell>
        <mxCell id="bZ2qh_dztLTytBPS-_CS-9" value="" style="line;strokeWidth=4;html=1;perimeter=backbonePerimeter;points=[];outlineConnect=0;fillColor=#dae8fc;strokeColor=#6c8ebf;" vertex="1" parent="1">
          <mxGeometry x="91.58" y="190" width="198.42" height="10" as="geometry" />
        </mxCell>
        <mxCell id="bZ2qh_dztLTytBPS-_CS-10" value="" style="line;strokeWidth=4;html=1;perimeter=backbonePerimeter;points=[];outlineConnect=0;fillColor=#d5e8d4;strokeColor=#82b366;" vertex="1" parent="1">
          <mxGeometry x="103.16" y="200" width="106.84" height="10" as="geometry" />
        </mxCell>
        <mxCell id="bZ2qh_dztLTytBPS-_CS-11" value="" style="line;strokeWidth=4;html=1;perimeter=backbonePerimeter;points=[];outlineConnect=0;fillColor=#d80073;strokeColor=#A50040;fontColor=#ffffff;" vertex="1" parent="1">
          <mxGeometry x="114.74" y="210" width="215.26" height="10" as="geometry" />
        </mxCell>
        <mxCell id="bZ2qh_dztLTytBPS-_CS-16" value="" style="html=1;verticalLabelPosition=bottom;align=center;labelBackgroundColor=#ffffff;verticalAlign=top;strokeWidth=2;strokeColor=light-dark(#d79b00, #32a0ff);shadow=0;dashed=0;shape=mxgraph.ios7.icons.trashcan;" vertex="1" parent="1">
          <mxGeometry x="110" y="370" width="24" height="30" as="geometry" />
        </mxCell>
        <mxCell id="bZ2qh_dztLTytBPS-_CS-19" value="" style="html=1;verticalLabelPosition=bottom;align=center;labelBackgroundColor=#ffffff;verticalAlign=top;strokeWidth=2;strokeColor=light-dark(#a50040, #32a0ff);shadow=0;dashed=0;shape=mxgraph.ios7.icons.trashcan;" vertex="1" parent="1">
          <mxGeometry x="198" y="370" width="24" height="30" as="geometry" />
        </mxCell>
        <mxCell id="bZ2qh_dztLTytBPS-_CS-20" value="" style="html=1;verticalLabelPosition=bottom;align=center;labelBackgroundColor=#ffffff;verticalAlign=top;strokeWidth=2;strokeColor=light-dark(#82b366, #32a0ff);shadow=0;dashed=0;shape=mxgraph.ios7.icons.trashcan;" vertex="1" parent="1">
          <mxGeometry x="276" y="370" width="24" height="30" as="geometry" />
        </mxCell>
        <mxCell id="bZ2qh_dztLTytBPS-_CS-21" value="" style="html=1;verticalLabelPosition=bottom;align=center;labelBackgroundColor=#ffffff;verticalAlign=top;strokeWidth=2;strokeColor=light-dark(#6c8ebf, #32a0ff);shadow=0;dashed=0;shape=mxgraph.ios7.icons.trashcan;" vertex="1" parent="1">
          <mxGeometry x="350" y="370" width="24" height="30" as="geometry" />
        </mxCell>
        <mxCell id="bZ2qh_dztLTytBPS-_CS-23" style="edgeStyle=orthogonalEdgeStyle;rounded=0;orthogonalLoop=1;jettySize=auto;html=1;entryX=0.458;entryY=0.033;entryDx=0;entryDy=0;entryPerimeter=0;" edge="1" parent="1" source="bZ2qh_dztLTytBPS-_CS-11" target="bZ2qh_dztLTytBPS-_CS-16">
          <mxGeometry relative="1" as="geometry">
            <mxPoint x="222" y="339" as="targetPoint" />
            <mxPoint x="290.4000000000001" y="290" as="sourcePoint" />
          </mxGeometry>
        </mxCell>
        <mxCell id="bZ2qh_dztLTytBPS-_CS-27" style="edgeStyle=orthogonalEdgeStyle;rounded=0;orthogonalLoop=1;jettySize=auto;html=1;entryX=0.375;entryY=-0.033;entryDx=0;entryDy=0;entryPerimeter=0;" edge="1" parent="1" source="bZ2qh_dztLTytBPS-_CS-11" target="bZ2qh_dztLTytBPS-_CS-20">
          <mxGeometry relative="1" as="geometry">
            <mxPoint x="222" y="339" as="targetPoint" />
            <mxPoint x="290.4000000000001" y="290" as="sourcePoint" />
            <Array as="points">
              <mxPoint x="222" y="295" />
              <mxPoint x="285" y="295" />
            </Array>
          </mxGeometry>
        </mxCell>
        <mxCell id="bZ2qh_dztLTytBPS-_CS-25" style="edgeStyle=orthogonalEdgeStyle;rounded=0;orthogonalLoop=1;jettySize=auto;html=1;entryX=0.458;entryY=0.033;entryDx=0;entryDy=0;entryPerimeter=0;" edge="1" parent="1" source="bZ2qh_dztLTytBPS-_CS-11" target="bZ2qh_dztLTytBPS-_CS-19">
          <mxGeometry relative="1" as="geometry">
            <mxPoint x="222" y="339" as="targetPoint" />
            <mxPoint x="290.4000000000001" y="290" as="sourcePoint" />
          </mxGeometry>
        </mxCell>
        <mxCell id="bZ2qh_dztLTytBPS-_CS-26" value="&lt;div&gt;&lt;font style=&quot;font-size: 12px;&quot;&gt;BINNING - grouping together contigs with similarities&lt;/font&gt;&lt;/div&gt;" style="edgeLabel;html=1;align=center;verticalAlign=middle;resizable=0;points=[];" vertex="1" connectable="0" parent="bZ2qh_dztLTytBPS-_CS-25">
          <mxGeometry x="-0.6777" y="-2" relative="1" as="geometry">
            <mxPoint y="17" as="offset" />
          </mxGeometry>
        </mxCell>
        <mxCell id="bZ2qh_dztLTytBPS-_CS-29" style="edgeStyle=orthogonalEdgeStyle;rounded=0;orthogonalLoop=1;jettySize=auto;html=1;entryX=0.375;entryY=-0.033;entryDx=0;entryDy=0;entryPerimeter=0;exitX=0.417;exitY=0;exitDx=0;exitDy=0;exitPerimeter=0;" edge="1" parent="1" source="bZ2qh_dztLTytBPS-_CS-21" target="bZ2qh_dztLTytBPS-_CS-20">
          <mxGeometry relative="1" as="geometry">
            <mxPoint x="222" y="339" as="targetPoint" />
            <mxPoint x="290.4000000000001" y="290" as="sourcePoint" />
            <Array as="points">
              <mxPoint x="360" y="295" />
              <mxPoint x="285" y="295" />
            </Array>
          </mxGeometry>
        </mxCell>
        <mxCell id="bZ2qh_dztLTytBPS-_CS-31" value="MAG#1" style="text;strokeColor=none;align=center;fillColor=none;html=1;verticalAlign=middle;whiteSpace=wrap;rounded=0;" vertex="1" parent="1">
          <mxGeometry x="90" y="420" width="60" height="30" as="geometry" />
        </mxCell>
        <mxCell id="bZ2qh_dztLTytBPS-_CS-32" value="MAG#2" style="text;strokeColor=none;align=center;fillColor=none;html=1;verticalAlign=middle;whiteSpace=wrap;rounded=0;" vertex="1" parent="1">
          <mxGeometry x="180" y="420" width="60" height="30" as="geometry" />
        </mxCell>
        <mxCell id="bZ2qh_dztLTytBPS-_CS-33" value="MAG#3" style="text;strokeColor=none;align=center;fillColor=none;html=1;verticalAlign=middle;whiteSpace=wrap;rounded=0;" vertex="1" parent="1">
          <mxGeometry x="258" y="420" width="60" height="30" as="geometry" />
        </mxCell>
        <mxCell id="bZ2qh_dztLTytBPS-_CS-34" value="MAG#4" style="text;strokeColor=none;align=center;fillColor=none;html=1;verticalAlign=middle;whiteSpace=wrap;rounded=0;" vertex="1" parent="1">
          <mxGeometry x="330" y="420" width="60" height="30" as="geometry" />
        </mxCell>
        <mxCell id="bZ2qh_dztLTytBPS-_CS-35" value="bins / MAGs / genomes - either partial or complete" style="text;strokeColor=none;align=center;fillColor=none;html=1;verticalAlign=middle;whiteSpace=wrap;rounded=0;" vertex="1" parent="1">
          <mxGeometry x="-46.84" y="370" width="126.84" height="30" as="geometry" />
        </mxCell>
      </root>
    </mxGraphModel>
  </diagram>
</mxfile>
